<svg width="40" height="40" viewBox="0 0 40 40" fill="none" xmlns="http://www.w3.org/2000/svg">
<path d="M38.9703 33.9642H38.4096V32.4394C38.4096 31.9109 37.9797 31.481 37.4513 31.481H35.9535V7.26958H38.812C39.3853 7.26958 39.8517 6.80317 39.8517 6.22989V3.33107C39.8517 2.75779 39.3853 2.29138 38.812 2.29138H30.7798C30.4679 2.29138 30.2151 2.54419 30.2151 2.85607C30.2151 3.16794 30.4679 3.42075 30.7798 3.42075H38.7223V6.14005H35.3889H4.61101H1.27758V3.42083H28.0965C28.4084 3.42083 28.6612 3.16802 28.6612 2.85615C28.6612 2.54427 28.4084 2.29146 28.0965 2.29146H1.18781C0.61453 2.29146 0.148125 2.75787 0.148125 3.33115V6.22997C0.148125 6.80325 0.61453 7.26965 1.18781 7.26965H4.04632V18.0471C4.04632 18.359 4.29913 18.6118 4.61101 18.6118C4.92288 18.6118 5.17569 18.359 5.17569 18.0471V7.26958H34.8242V31.4811H32.5574V21.8666C32.5574 14.9425 26.9242 9.30918 20 9.30918C13.0758 9.30918 7.44256 14.9424 7.44256 21.8666V31.4811H5.17577V20.767C5.17577 20.4552 4.92296 20.2024 4.61108 20.2024C4.29921 20.2024 4.0464 20.4552 4.0464 20.767V31.4811H2.54859C2.02015 31.4811 1.59023 31.911 1.59023 32.4395V33.9643H1.02953C0.461874 33.9642 0 34.4261 0 34.9938V36.679C0 37.2467 0.461874 37.7086 1.02961 37.7086H38.9704C39.538 37.7086 40 37.2467 40 36.679V34.9938C39.9999 34.4261 39.5381 33.9642 38.9703 33.9642ZM8.57194 21.8666H8.57201C8.57201 15.5652 13.6986 10.4386 20 10.4386C26.3014 10.4386 31.4279 15.5652 31.4279 21.8666V31.4811H30.0017V31.2947C30.0017 29.8 28.7856 28.5841 27.291 28.5841H24.9307C26.0623 26.8414 25.7972 24.7877 25.7828 24.6845C25.7496 24.445 25.5675 24.2532 25.33 24.2076C25.0928 24.162 24.8524 24.2726 24.7328 24.4827C24.7287 24.4898 24.3214 25.2024 23.7834 25.9088C23.0106 26.9234 22.5822 27.1253 22.4381 27.1654C22.5282 27.0177 22.7021 26.7956 22.8493 26.6077C23.45 25.841 24.3577 24.6824 24.8468 22.7783C25.2516 21.2024 24.8082 19.7099 23.5646 18.4621C22.6636 17.5581 21.6549 17.1036 21.6124 17.0847C21.3915 16.9866 21.1329 17.04 20.9688 17.2172C20.8046 17.3945 20.7714 17.6569 20.8862 17.8696C21.1271 18.316 21.2926 18.8967 21.2332 19.0742C21.2175 19.0788 21.1875 19.0853 21.1377 19.0871C21.1207 19.0878 21.1037 19.0881 21.0871 19.0881C21.0871 19.0881 21.0871 19.0881 21.0871 19.0881C20.7516 19.0881 20.6045 18.9521 20.5139 18.8336C19.9552 18.1034 20.2311 16.0462 20.5363 14.9214C20.6036 14.6743 20.4962 14.4129 20.2747 14.2845C20.0532 14.156 19.7731 14.1927 19.592 14.3738C19.2847 14.6812 16.5986 17.4371 16.909 19.5063C17.0605 20.5167 17.7698 21.2115 18.3397 21.7698C18.6191 22.0435 19.0018 22.4183 19.0026 22.591C19.0029 22.6417 18.9463 22.7285 18.8513 22.8236C18.7448 22.9301 18.6608 22.9445 18.5928 22.9445C18.5927 22.9445 18.5928 22.9445 18.5927 22.9445C17.9961 22.9445 16.968 21.7884 16.4613 21.0073C16.3682 20.8634 16.2147 20.7696 16.0443 20.7522C15.8738 20.735 15.7046 20.796 15.5844 20.9182C15.5242 20.9795 14.1097 22.4574 14.1835 25.7292C14.1846 25.7764 14.1861 25.8233 14.1883 25.8699C14.234 26.8513 14.5634 27.7825 15.1359 28.5841H12.7088C11.2141 28.5841 9.99818 29.8002 9.99818 31.2948V31.4812H8.57194V21.8666ZM19.1302 20.9628C18.6343 20.477 18.1214 19.9746 18.026 19.3385C17.9229 18.6515 18.4403 17.6421 19.0875 16.7285C19.0139 17.7187 19.0874 18.8268 19.6163 19.5189C19.9655 19.976 20.4773 20.2196 21.0874 20.2174C21.1181 20.2174 21.1496 20.2167 21.1812 20.2156C21.808 20.1914 22.0939 19.8499 22.2085 19.6485C22.3378 19.4212 22.3792 19.1578 22.3685 18.8904C23.2396 19.6046 24.1864 20.8096 23.7529 22.4971C23.3227 24.172 22.5353 25.1772 21.9603 25.9111C21.6814 26.2671 21.4611 26.5484 21.3435 26.8332C21.1575 27.2838 21.261 27.7189 21.6275 28.0269C21.8439 28.2086 22.105 28.3046 22.3828 28.3046C22.383 28.3046 22.3832 28.3046 22.3833 28.3046C23.0121 28.3044 23.685 27.8379 24.4875 26.8415C24.3182 27.4335 24.015 28.0624 23.481 28.584H16.6325C15.8305 27.8353 15.3651 26.8601 15.3166 25.8173C15.3148 25.7798 15.3135 25.742 15.3127 25.7038C15.2749 24.0269 15.6784 22.9158 16.0024 22.3004C16.5897 23.0444 17.5845 24.0738 18.5929 24.0737C18.5929 24.0737 18.5932 24.0737 18.5932 24.0737C18.9893 24.0736 19.3547 23.9174 19.6501 23.622C19.9719 23.3002 20.1341 22.9513 20.1322 22.5849C20.1289 21.941 19.6438 21.4659 19.1302 20.9628ZM16.4172 29.7134H23.7011H27.291C28.1629 29.7134 28.8722 30.4227 28.8722 31.2946V31.481H11.1276V31.2946C11.1276 30.4227 11.8369 29.7134 12.7088 29.7134H16.4172ZM2.71968 32.6105H4.61101H10.5629H29.4369H35.3888H37.2801V33.9642H2.71968V32.6105ZM38.8706 36.5792H1.12945V35.0937H2.155H37.845H38.8706V36.5792Z" fill="#CBC56C"/>
</svg>
