<svg width="40" height="40" viewBox="0 0 40 40" fill="none" xmlns="http://www.w3.org/2000/svg">
<path d="M37.3333 10C36.8638 10.0028 36.4035 10.1307 36 10.3707V8.66667C36 7.19391 34.8061 6 33.3333 6C31.8605 6 30.6666 7.19391 30.6666 8.66667V14.6667H27.776L25.3333 12.204V9.452C25.3333 8.83119 25.0859 8.23598 24.6459 7.79806C24.2058 7.36015 23.6094 7.11565 22.9886 7.11867C22.5776 7.12116 22.1749 7.23423 21.8226 7.446C21.4948 6.65051 20.7558 6.09999 19.8997 6.01355C19.0437 5.9271 18.2096 6.31878 17.7293 7.03267C17.1543 6.59559 16.4086 6.45108 15.7119 6.64171C15.0152 6.83234 14.447 7.33639 14.1746 8.00533C13.8152 7.79269 13.4056 7.6797 12.988 7.678C11.7061 7.6791 10.6674 8.71816 10.6666 10V14.6667H9.35997V8.66667C9.35997 7.19391 8.16606 6 6.6933 6C5.22054 6 4.02663 7.19391 4.02663 8.66667V10.3707C3.62307 10.1307 3.1628 10.0028 2.6933 10C1.22054 10 0.0266342 11.1939 0.0266342 12.6667V22.6667C0.0266342 24.1394 1.22054 25.3333 2.6933 25.3333C3.1628 25.3306 3.62307 25.2026 4.02663 24.9627V26.6667C4.02663 28.1394 5.22054 29.3333 6.6933 29.3333C8.16606 29.3333 9.35997 28.1394 9.35997 26.6667V20.6667H11.3333V21.0867C11.2898 22.3062 11.5936 23.513 12.2093 24.5667L12.9833 25.9053C13.1876 26.2042 13.3084 26.5522 13.3333 26.9133V32.9133C13.334 33.5132 13.8201 33.9993 14.42 34H22.9066C23.5102 33.9993 23.9992 33.5102 24 32.9067V26.8467C24 26.7288 24.033 26.6134 24.0953 26.5133L27.5213 20.6667H30.6666V26.6667C30.6666 28.1394 31.8605 29.3333 33.3333 29.3333C34.8061 29.3333 36 28.1394 36 26.6667V24.9627C36.4035 25.2026 36.8638 25.3306 37.3333 25.3333C38.8061 25.3333 40 24.1394 40 22.6667V12.6667C40 11.1939 38.8061 10 37.3333 10ZM23.0113 8.452C23.5601 8.45604 24.0022 8.90322 24 9.452L24 10.86L23.6846 10.542C23.3031 10.1639 22.7878 9.95162 22.2506 9.95133H22.244C22.1622 9.95391 22.0807 9.96193 22 9.97533V9.452C22 9.18481 22.1069 8.92872 22.2969 8.74086C22.4869 8.55299 22.7441 8.44897 23.0113 8.452ZM18.6666 8.33333C18.6666 7.78105 19.1143 7.33333 19.6666 7.33333C20.2189 7.33333 20.6666 7.78105 20.6666 8.33333V10.8C19.9546 11.8944 19.9546 13.3056 20.6666 14.4V14.8033C20.516 15.2259 20.1152 15.5075 19.6666 15.506C19.4027 15.5087 19.1486 15.4058 18.9608 15.2203C18.7731 15.0348 18.6672 14.782 18.6666 14.518V8.33333ZM15.3333 8.88267C15.3333 8.33038 15.781 7.88267 16.3333 7.88267C16.8856 7.88267 17.3333 8.33038 17.3333 8.88267V14.5167C17.3329 15.0634 16.89 15.5066 16.3433 15.5073H16.3233C15.7766 15.5066 15.3337 15.0634 15.3333 14.5167V8.88267ZM12 10C12 9.44772 12.4477 9 13 9C13.5523 9 14 9.44772 14 10V15.6273C14 16.1796 13.5523 16.6273 13 16.6273C12.4477 16.6273 12 16.1796 12 15.6273V10ZM2.6933 24C1.95692 24 1.35997 23.403 1.35997 22.6667V12.6667C1.35997 11.9303 1.95692 11.3333 2.6933 11.3333C3.42968 11.3333 4.02663 11.9303 4.02663 12.6667V22.6667C4.02663 23.403 3.42968 24 2.6933 24ZM8.02663 26.6667C8.02663 27.403 7.42968 28 6.6933 28C5.95692 28 5.35997 27.403 5.35997 26.6667V8.66667C5.35997 7.93029 5.95692 7.33333 6.6933 7.33333C7.42968 7.33333 8.02663 7.93029 8.02663 8.66667V26.6667ZM9.35997 16H10.7046C10.8879 17.1263 11.8588 17.9549 13 17.9587C13.9446 17.9578 14.7955 17.3875 15.1553 16.514C15.5081 16.7254 15.9113 16.8383 16.3226 16.8407H16.3426C16.9668 16.8407 17.5645 16.5885 18 16.1413C18.0073 16.1493 18.0126 16.1587 18.0206 16.1667C18.4583 16.6006 19.0503 16.843 19.6666 16.8407C20.5388 16.8387 21.3413 16.3637 21.7626 15.6C21.8293 15.6667 21.9033 15.7413 21.9673 15.8067L22.7593 16.6067C21.5634 17.1837 20.534 18.0554 19.768 19.14C19.7213 19.2067 19.6846 19.2733 19.6406 19.34H9.35997V16ZM22.9513 25.8253C22.7639 26.1329 22.6653 26.4865 22.6666 26.8467V32.6667H14.6666V26.9133C14.6482 26.3126 14.4635 25.7288 14.1333 25.2267L13.3533 23.8813C12.8646 23.0335 12.6265 22.0644 12.6666 21.0867V20.6667H18.9333C18.8453 20.8733 18.7566 21.0807 18.682 21.298C18.5632 21.6467 18.7496 22.0256 19.0983 22.1443C19.447 22.2631 19.8259 22.0767 19.9446 21.728C20.1095 21.2401 20.3251 20.7709 20.588 20.328C20.668 20.1841 20.757 20.0453 20.8546 19.9127C21.651 18.7781 22.7937 17.9323 24.1113 17.502C24.3434 17.4438 24.5265 17.2658 24.5911 17.0354C24.6557 16.805 24.5919 16.5577 24.424 16.3873C24.424 16.3873 23.9233 15.8793 22.9193 14.8693C22.6373 14.5807 22.312 14.256 21.9446 13.8873L21.892 13.834C21.8722 13.8044 21.8499 13.7765 21.8253 13.7507C21.3281 13.059 21.3379 12.1245 21.8493 11.4433C21.9514 11.3322 22.0989 11.2744 22.2493 11.2867C22.4322 11.2863 22.6078 11.3582 22.738 11.4867L27.6 16.382C27.9383 16.7184 27.9989 17.2441 27.746 17.6487L22.9513 25.8253ZM28.3033 19.3333L28.8906 18.3333C29.32 17.6202 29.3421 16.7336 28.9486 16H30.6666V19.3333H28.3033ZM34.6666 26.6667C34.6666 27.403 34.0697 28 33.3333 28C32.5969 28 32 27.403 32 26.6667V8.66667C32 7.93029 32.5969 7.33333 33.3333 7.33333C34.0697 7.33333 34.6666 7.93029 34.6666 8.66667V26.6667ZM38.6666 22.6667C38.6666 23.403 38.0697 24 37.3333 24C36.5969 24 36 23.403 36 22.6667V12.6667C36 11.9303 36.5969 11.3333 37.3333 11.3333C38.0697 11.3333 38.6666 11.9303 38.6666 12.6667V22.6667Z" fill="#CBC56C"/>
</svg>
