<svg width="40" height="40" viewBox="0 0 40 40" fill="none" xmlns="http://www.w3.org/2000/svg">
<g clip-path="url(#clip0)">
<path d="M39.375 38.75H0.625C0.45924 38.75 0.300269 38.8158 0.183058 38.9331C0.065848 39.0503 0 39.2092 0 39.375C0 39.5408 0.065848 39.6997 0.183058 39.8169C0.300269 39.9342 0.45924 40 0.625 40H39.375C39.5408 40 39.6997 39.9342 39.8169 39.8169C39.9342 39.6997 40 39.5408 40 39.375C40 39.2092 39.9342 39.0503 39.8169 38.9331C39.6997 38.8158 39.5408 38.75 39.375 38.75Z" fill="#CBC56C"/>
<path d="M8.70625 36.875H3.125C2.95924 36.875 2.80027 36.9408 2.68306 37.0581C2.56585 37.1753 2.5 37.3342 2.5 37.5C2.5 37.6658 2.56585 37.8247 2.68306 37.9419C2.80027 38.0592 2.95924 38.125 3.125 38.125H8.8375L39.4625 33.75C39.5446 33.7385 39.6236 33.711 39.695 33.6689C39.7665 33.6269 39.8289 33.5712 39.8788 33.5051C39.9287 33.4389 39.9651 33.3636 39.9859 33.2833C40.0067 33.2031 40.0115 33.1196 40 33.0375C39.9885 32.9554 39.961 32.8764 39.919 32.805C39.8769 32.7336 39.8212 32.6711 39.7551 32.6212C39.6889 32.5713 39.6136 32.5349 39.5334 32.5141C39.4531 32.4933 39.3696 32.4885 39.2875 32.5L26.875 34.2812V26.8438C29.1357 26.6819 31.2454 25.6491 32.7599 23.9628C34.2744 22.2766 35.0754 20.0685 34.9944 17.8034C34.9134 15.5383 33.9567 13.3931 32.3256 11.8193C30.6946 10.2456 28.5165 9.3661 26.25 9.3661C23.9835 9.3661 21.8054 10.2456 20.1744 11.8193C18.5433 13.3931 17.5866 15.5383 17.5056 17.8034C17.4246 20.0685 18.2257 22.2766 19.7401 23.9628C21.2546 25.6491 23.3643 26.6819 25.625 26.8438V34.4562L16.25 35.8V29.375C18.1405 29.2737 19.9746 28.6953 21.5813 27.6938C21.7222 27.6059 21.8224 27.4657 21.8599 27.3039C21.8974 27.1422 21.8691 26.9721 21.7813 26.8312C21.6934 26.6904 21.5532 26.5901 21.3914 26.5526C21.2297 26.5151 21.0597 26.5434 20.9188 26.6313C19.5112 27.5102 17.9064 28.0237 16.25 28.125V12.8L19.1375 10.4875C19.261 10.3821 19.3386 10.2327 19.3539 10.071C19.3692 9.90937 19.3209 9.74811 19.2194 9.62139C19.1179 9.49467 18.971 9.41244 18.8099 9.39212C18.6488 9.37179 18.4861 9.41497 18.3563 9.5125L16.25 11.2V6.875C16.25 6.70924 16.1842 6.55027 16.0669 6.43306C15.9497 6.31585 15.7908 6.25 15.625 6.25C15.4592 6.25 15.3003 6.31585 15.1831 6.43306C15.0659 6.55027 15 6.70924 15 6.875V11.2L12.8875 9.5125C12.7577 9.41497 12.595 9.37179 12.4339 9.39212C12.2728 9.41244 12.1259 9.49467 12.0244 9.62139C11.9228 9.74811 11.8746 9.90937 11.8899 10.071C11.9052 10.2327 11.9828 10.3821 12.1063 10.4875L15 12.8V16.25L10.3813 12.6625C10.3164 12.612 10.2423 12.5748 10.163 12.553C10.0838 12.5312 10.0011 12.5252 9.91954 12.5353C9.75486 12.5558 9.60507 12.6409 9.50313 12.7719C9.45265 12.8367 9.41544 12.9109 9.39362 12.9901C9.3718 13.0693 9.36579 13.152 9.37595 13.2336C9.39646 13.3983 9.48155 13.5481 9.6125 13.65L15 17.8062V21.25L10.3813 17.6625C10.2503 17.5606 10.0842 17.5148 9.91954 17.5353C9.75486 17.5558 9.60507 17.6409 9.50313 17.7719C9.40119 17.9028 9.35544 18.0689 9.37595 18.2336C9.39646 18.3983 9.48155 18.5481 9.6125 18.65L15 22.8063V28.0938C12.463 27.9349 10.0818 26.8158 8.34031 24.9641C6.59887 23.1124 5.62798 20.667 5.625 18.125C5.625 12.5687 10.2563 1.25 15.625 1.25C18.175 1.25 20.8813 3.85625 23.05 8.39375C23.1281 8.53112 23.2554 8.63378 23.4062 8.68108C23.557 8.72838 23.7201 8.71679 23.8627 8.64867C24.0053 8.58054 24.1168 8.46092 24.1747 8.31389C24.2327 8.16687 24.2328 8.00335 24.175 7.85625C21.7938 2.8625 18.675 0 15.625 0C9.2375 0 4.375 12.0813 4.375 18.125C4.37854 20.9981 5.4812 23.761 7.45683 25.847C9.43246 27.933 12.1313 29.1841 15 29.3438V35.975L8.70625 36.875ZM18.75 18.125C18.749 16.6681 19.1724 15.2424 19.9684 14.0221C20.7644 12.8018 21.8986 11.8399 23.2324 11.2537C24.5663 10.6675 26.0419 10.4825 27.4792 10.7212C28.9164 10.96 30.253 11.6123 31.3256 12.5982C32.3983 13.5842 33.1605 14.8613 33.5192 16.2734C33.8779 17.6855 33.8175 19.1715 33.3454 20.5498C32.8734 21.9282 32.0101 23.1392 30.861 24.0349C29.712 24.9307 28.3269 25.4723 26.875 25.5938V22.1688L30.4 19.2313C30.5276 19.1252 30.6079 18.9727 30.6231 18.8075C30.6384 18.6422 30.5873 18.4776 30.4813 18.35C30.3752 18.2224 30.2227 18.1421 30.0575 18.1269C29.8922 18.1116 29.7276 18.1627 29.6 18.2687L26.875 20.5375V17.7875L30.4 14.85C30.5276 14.7439 30.6079 14.5915 30.6231 14.4262C30.6384 14.2609 30.5873 14.0964 30.4813 13.9688C30.3752 13.8411 30.2227 13.7608 30.0575 13.7456C29.8922 13.7304 29.7276 13.7814 29.6 13.8875L26.875 16.1625V14.375C26.875 14.2092 26.8092 14.0503 26.692 13.9331C26.5747 13.8158 26.4158 13.75 26.25 13.75C26.0842 13.75 25.9253 13.8158 25.8081 13.9331C25.6909 14.0503 25.625 14.2092 25.625 14.375V16.1625L22.9 13.8937C22.7724 13.7877 22.6078 13.7366 22.4426 13.7519C22.2773 13.7671 22.1248 13.8474 22.0188 13.975C21.9127 14.1026 21.8616 14.2672 21.8769 14.4325C21.8921 14.5977 21.9724 14.7502 22.1 14.8563L25.625 17.7937V20.5437L22.9 18.275C22.7724 18.1689 22.6078 18.1179 22.4426 18.1331C22.2773 18.1483 22.1248 18.2286 22.0188 18.3563C21.9127 18.4839 21.8616 18.6484 21.8769 18.8137C21.8921 18.979 21.9724 19.1314 22.1 19.2375L25.625 22.1688V25.5938C23.7515 25.4371 22.0052 24.5825 20.7319 23.1993C19.4586 21.816 18.7513 20.005 18.75 18.125Z" fill="#CBC56C"/>
</g>
<defs>
<clipPath id="clip0">
<rect width="40" height="40" fill="white"/>
</clipPath>
</defs>
</svg>
