<svg width="40" height="40" viewBox="0 0 40 40" fill="none" xmlns="http://www.w3.org/2000/svg">
<g clip-path="url(#clip0)">
<path d="M14.1547 5.56088C13.4697 4.17585 12.9297 3.08247 14.1213 1.29415C14.3763 0.910783 14.2713 0.394132 13.8897 0.139126C13.5113 -0.114239 12.9913 -0.0125178 12.7347 0.370772C11.008 2.95747 11.9246 4.81087 12.6613 6.29926C13.3497 7.69265 13.848 8.69931 12.7347 10.371C12.478 10.7544 12.583 11.271 12.9647 11.526C13.1063 11.621 13.268 11.666 13.428 11.666C13.6964 11.666 13.9597 11.536 14.1197 11.2944C15.7681 8.82431 14.8747 7.01427 14.1547 5.56088Z" fill="#CBC56C"/>
<path d="M20.7949 5.56088C20.1082 4.17585 19.5682 3.08247 20.7599 1.29415C21.0149 0.910783 20.9099 0.394132 20.5282 0.139126C20.1499 -0.114239 19.6282 -0.0125178 19.3732 0.370772C17.6482 2.95919 18.5648 4.81251 19.2998 6.3009C19.9882 7.69429 20.4865 8.70095 19.3732 10.371C19.1182 10.7544 19.2232 11.271 19.6049 11.526C19.7465 11.621 19.9065 11.666 20.0665 11.666C20.3349 11.666 20.5982 11.536 20.7599 11.2944C22.4083 8.82431 21.5149 7.01427 20.7949 5.56088Z" fill="#CBC56C"/>
<path d="M27.4336 5.56088C26.747 4.17585 26.207 3.08247 27.3986 1.29415C27.6537 0.910783 27.5487 0.394132 27.167 0.139126C26.7886 -0.114239 26.267 -0.0125178 26.012 0.370772C24.2869 2.95919 25.2036 4.81251 25.9386 6.3009C26.627 7.69429 27.1253 8.70095 26.012 10.371C25.757 10.7544 25.862 11.271 26.2436 11.526C26.3853 11.621 26.5453 11.666 26.7053 11.666C26.9753 11.666 27.2386 11.536 27.3986 11.2944C29.047 8.82431 28.1537 7.01427 27.4336 5.56088Z" fill="#CBC56C"/>
<path d="M34.1669 13.3326H5.8329C3.53449 13.3326 1.66617 15.2027 1.66617 17.4994V32.4997C1.66617 34.7964 3.53457 36.6664 5.8329 36.6664H34.1669C36.4653 36.6664 38.3336 34.7964 38.3336 32.4997V17.4994C38.3336 15.2027 36.4652 13.3326 34.1669 13.3326ZM36.6669 32.4998C36.6669 33.8782 35.5453 34.9998 34.1669 34.9998H5.8329C4.45451 34.9998 3.33284 33.8782 3.33284 32.4998V17.4994C3.33284 16.1211 4.45451 14.9994 5.8329 14.9994H34.1669C35.5453 14.9994 36.6669 16.1211 36.6669 17.4994V32.4998Z" fill="#CBC56C"/>
<path d="M7.49956 16.6661C7.03955 16.6661 6.66618 17.0395 6.66618 17.4995V32.4998C6.66618 32.9599 7.03955 33.3332 7.49956 33.3332C7.95957 33.3332 8.33294 32.9599 8.33294 32.4998V17.4995C8.33294 17.0395 7.95957 16.6661 7.49956 16.6661Z" fill="#CBC56C"/>
<path d="M12.4997 16.6661C12.0397 16.6661 11.6663 17.0395 11.6663 17.4995V32.4998C11.6663 32.9599 12.0397 33.3332 12.4997 33.3332C12.9597 33.3332 13.333 32.9599 13.333 32.4998V17.4995C13.333 17.0395 12.9597 16.6661 12.4997 16.6661Z" fill="#CBC56C"/>
<path d="M17.4998 16.6661C17.0398 16.6661 16.6664 17.0395 16.6664 17.4995V32.4998C16.6664 32.9599 17.0398 33.3332 17.4998 33.3332C17.9598 33.3332 18.3331 32.9599 18.3331 32.4998V17.4995C18.3331 17.0395 17.9598 16.6661 17.4998 16.6661Z" fill="#CBC56C"/>
<path d="M22.4999 16.6661C22.0399 16.6661 21.6665 17.0395 21.6665 17.4995V32.4998C21.6665 32.9599 22.0399 33.3332 22.4999 33.3332C22.9599 33.3332 23.3333 32.9599 23.3333 32.4998V17.4995C23.3333 17.0395 22.9599 16.6661 22.4999 16.6661Z" fill="#CBC56C"/>
<path d="M27.5 16.6661C27.04 16.6661 26.6666 17.0395 26.6666 17.4995V32.4998C26.6666 32.9599 27.04 33.3332 27.5 33.3332C27.96 33.3332 28.3334 32.9599 28.3334 32.4998V17.4995C28.3334 17.0395 27.96 16.6661 27.5 16.6661Z" fill="#CBC56C"/>
<path d="M32.5001 16.6661C32.0401 16.6661 31.6667 17.0395 31.6667 17.4995V32.4998C31.6667 32.9599 32.0401 33.3332 32.5001 33.3332C32.9601 33.3332 33.3335 32.9599 33.3335 32.4998V17.4995C33.3335 17.0395 32.9601 16.6661 32.5001 16.6661Z" fill="#CBC56C"/>
<path d="M9.16632 34.9999C8.70631 34.9999 8.33295 35.3732 8.33295 35.8333V39.1667C8.33295 39.6267 8.70631 40.0001 9.16632 40.0001C9.62633 40.0001 9.9997 39.6267 9.9997 39.1667V35.8333C9.99962 35.3732 9.62633 34.9999 9.16632 34.9999Z" fill="#CBC56C"/>
<path d="M30.8334 34.9999C30.3734 34.9999 30 35.3732 30 35.8333V39.1667C30 39.6267 30.3734 40.0001 30.8334 40.0001C31.2934 40.0001 31.6668 39.6267 31.6668 39.1667V35.8333C31.6668 35.3732 31.2934 34.9999 30.8334 34.9999Z" fill="#CBC56C"/>
</g>
<defs>
<clipPath id="clip0">
<rect width="40" height="40" fill="white"/>
</clipPath>
</defs>
</svg>
