<svg width="40" height="40" viewBox="0 0 40 40" fill="none" xmlns="http://www.w3.org/2000/svg">
<path d="M37.6562 13.75H39.2188C39.6502 13.75 40 13.4002 40 12.9688C40 12.5373 39.6502 12.1875 39.2188 12.1875H36.875C36.4435 12.1875 36.0938 12.5373 36.0938 12.9688V16.875H30.625V12.9688C30.625 12.5373 30.2752 12.1875 29.8438 12.1875H27.5C27.0685 12.1875 26.7188 12.5373 26.7188 12.9688C26.7188 13.4002 27.0685 13.75 27.5 13.75H29.0625V17.3216C27.6785 18.5834 25.7615 19.302 23.75 19.302C21.7385 19.302 19.8215 18.5834 18.4375 17.3216V13.2812H20C20.302 13.2812 20.577 13.1071 20.7062 12.8341C20.8353 12.5612 20.7956 12.2381 20.6041 12.0046L10.9948 0.285859C10.8464 0.104922 10.6247 0 10.3906 0C10.1566 0 9.93492 0.104922 9.78648 0.285859L0.177109 12.0046C-0.014375 12.2381 -0.0540625 12.5612 0.0750781 12.8341C0.204297 13.1072 0.479219 13.2812 0.78125 13.2812H2.34375V38.4375H0.78125C0.349766 38.4375 0 38.7873 0 39.2188C0 39.6502 0.349766 40 0.78125 40H5.46875C5.90023 40 6.25 39.6502 6.25 39.2188C6.25 38.7873 5.90023 38.4375 5.46875 38.4375H3.90625V27.8125H16.875V38.4375H15.3125C14.881 38.4375 14.5312 38.7873 14.5312 39.2188C14.5312 39.6502 14.881 40 15.3125 40H20C20.4315 40 20.7812 39.6502 20.7812 39.2188C20.7812 38.7873 20.4315 38.4375 20 38.4375H18.4375V27.8125H29.0625V38.4375H27.5C27.0685 38.4375 26.7188 38.7873 26.7188 39.2188C26.7188 39.6502 27.0685 40 27.5 40H39.2188C39.6502 40 40 39.6502 40 39.2188C40 38.7873 39.6502 38.4375 39.2188 38.4375H37.6562V13.75ZM30.625 23.125H36.0938V26.25H30.625V23.125ZM36.0938 18.4375V21.5625H30.625V18.4375H36.0938ZM3.90625 13.2812H6.875C7.30648 13.2812 7.65625 12.9315 7.65625 12.5C7.65625 12.0685 7.30648 11.7188 6.875 11.7188C6.3143 11.7188 3.09477 11.7188 2.43219 11.7188L10.3906 2.01336L18.3491 11.7188C17.6872 11.7188 14.4672 11.7188 13.9062 11.7188C13.4748 11.7188 13.125 12.0685 13.125 12.5C13.125 12.9315 13.4748 13.2812 13.9062 13.2812H16.875V26.25H13.5156V20.7812C13.5156 19.0581 12.1138 17.6562 10.3906 17.6562C8.6675 17.6562 7.26562 19.0581 7.26562 20.7812V26.25H3.90625V13.2812ZM11.9531 26.25H8.82812V20.7812C8.82812 19.9197 9.52906 19.2188 10.3906 19.2188C11.2522 19.2188 11.9531 19.9197 11.9531 20.7812V26.25ZM18.4375 26.25V19.2984C20.007 20.3417 21.8784 20.864 23.75 20.864C25.6216 20.864 27.493 20.3416 29.0625 19.2984V26.25H18.4375ZM36.0938 27.8125V30.9375H30.625V27.8125H36.0938ZM30.625 38.4375V32.5H36.0938V38.4375H30.625Z" fill="#CBC56C"/>
<path d="M10.3906 13.2812C10.8221 13.2812 11.1719 12.9315 11.1719 12.5C11.1719 12.0685 10.8221 11.7188 10.3906 11.7188C9.95915 11.7188 9.60938 12.0685 9.60938 12.5C9.60938 12.9315 9.95915 13.2812 10.3906 13.2812Z" fill="#CBC56C"/>
</svg>
