<svg width="40" height="40" viewBox="0 0 40 40" fill="none" xmlns="http://www.w3.org/2000/svg">
<g clip-path="url(#clip0)">
<path d="M39.3332 31.3329C39.7014 31.3329 39.9998 31.0344 39.9998 30.6663C39.9998 30.2981 39.7013 29.9996 39.3332 29.9996H38.6665C38.6665 29.6314 38.3681 29.333 37.9999 29.333C37.6317 29.333 37.3333 29.6314 37.3333 29.9996H26.6667C26.6667 29.6314 26.3682 29.333 26.0001 29.333C25.6319 29.333 25.3335 29.6314 25.3335 29.9996H24.6668C24.2987 29.9996 24.0002 30.2982 24.0002 30.6663C24.0002 31.0345 24.2987 31.3329 24.6668 31.3329H25.3335V33.3329H24.6668C24.2987 33.3329 24.0002 33.6313 24.0002 33.9995C24.0002 34.3677 24.2987 34.6661 24.6668 34.6661H25.3335V35.3327H24.6668C24.2987 35.3327 24.0002 35.6313 24.0002 35.9994C24.0002 36.3675 24.2987 36.666 24.6668 36.666H25.3335V38.666H14.0002V33.1504C14.9864 33.7061 16.099 33.9986 17.231 33.9994C21.0168 33.9449 24.0445 30.837 24.0001 27.0509C24.0206 24.4187 22.5507 22.0012 20.2042 20.8082C20.9767 19.7565 21.3906 18.4843 21.3849 17.1794C21.4081 14.2995 19.3879 11.8068 16.5656 11.2329C17.2797 9.65804 17.157 7.83011 16.2386 6.36498C15.3204 4.89977 13.7288 3.99236 12.0002 3.94853C11.9804 3.94853 11.9614 3.95135 11.9417 3.95158C11.5868 1.65732 9.59875 -0.02671 7.27739 0.000320812C4.95602 0.0273516 3.00785 1.75732 2.70645 4.05923C1.01836 4.38282 -0.147012 5.93701 0.0154066 7.64823C0.177826 9.35945 1.61483 10.6665 3.33379 10.6666H7.21973C7.27989 10.8583 7.35122 11.0464 7.43332 11.2297C4.61119 11.8056 2.592 14.2993 2.61567 17.1795C2.60997 18.4844 3.02387 19.7566 3.79628 20.8083C1.44983 22.0013 -0.0200616 24.4188 0.00048496 27.051C-0.0440455 30.837 2.98371 33.945 6.76958 33.9995C7.90152 33.9986 9.01416 33.7063 10.0003 33.1505V38.6661H0.667192C0.298995 38.6661 0.000563078 38.9645 0.000563078 39.3327C0.000563078 39.7009 0.298995 39.9993 0.667192 39.9993H39.3332C39.7014 39.9993 39.9998 39.7009 39.9998 39.3327C39.9998 38.9645 39.7013 38.6661 39.3332 38.6661H38.6665V36.6661H39.3332C39.7014 36.6661 39.9998 36.3677 39.9998 35.9995C39.9998 35.6313 39.7013 35.3328 39.3332 35.3328H38.6665V34.6662H39.3332C39.7014 34.6662 39.9998 34.3678 39.9998 33.9996C39.9998 33.6314 39.7013 33.3329 39.3332 33.3329H38.6665V31.333H39.3332V31.3329ZM6.97466 9.10282C6.97466 9.18024 6.98341 9.25633 6.98685 9.33328H3.33379C2.22927 9.33328 1.33382 8.43791 1.33382 7.33332C1.33382 6.22873 2.22927 5.33335 3.33379 5.33335C3.51058 5.33343 3.68019 5.2632 3.80526 5.13812C3.93026 5.01312 4.00049 4.84352 4.00049 4.66665C3.99706 2.92683 5.33477 1.47826 7.06934 1.34342C8.80392 1.2085 10.3494 2.43293 10.6151 4.15236C8.44073 4.81649 6.96052 6.82942 6.97466 9.10282ZM12.667 38.6661H11.3336V32.1705C11.5725 31.948 11.7954 31.7088 12.0003 31.4547C12.2052 31.7088 12.428 31.948 12.6669 32.1705V38.6661H12.667ZM12.7479 30.1947L17.1382 25.8043C17.3946 25.5433 17.3926 25.1246 17.134 24.8659C16.8754 24.6072 16.4566 24.6054 16.1956 24.8617L12.667 28.3902V21.6091L15.8049 18.4712C16.0624 18.2104 16.0611 17.7906 15.8019 17.5314C15.5428 17.2723 15.123 17.271 14.8622 17.5285L12.6669 19.7237V16.6665C12.6669 16.2983 12.3684 15.9999 12.0003 15.9999C11.6321 15.9999 11.3336 16.2984 11.3336 16.6665V19.7237L9.13837 17.5285C8.87759 17.271 8.45784 17.2723 8.19862 17.5314C7.93941 17.7906 7.93816 18.2103 8.19565 18.4712L11.3336 21.6092V28.3903L7.80496 24.8617C7.54418 24.6042 7.12442 24.6055 6.86521 24.8647C6.60607 25.1238 6.60474 25.5436 6.86224 25.8044L11.2526 30.1947C10.2766 31.7282 8.58713 32.6595 6.76943 32.6662C3.71964 32.6126 1.28835 30.101 1.33366 27.0511C1.30538 24.6392 2.82989 22.482 5.1129 21.7035C5.33359 21.6308 5.50047 21.4484 5.55328 21.2221C5.60609 20.9957 5.53711 20.7583 5.37141 20.5954C4.45502 19.6958 3.9419 18.4636 3.94893 17.1795C3.90534 14.6357 5.9171 12.5306 8.46026 12.4589C8.73549 12.4831 8.99853 12.3407 9.12853 12.0968C9.2422 11.8728 9.21993 11.6038 9.07095 11.4015C8.57682 10.7369 8.30932 9.93101 8.30792 9.10274C8.27542 7.02918 9.9268 5.32031 12.0002 5.28187C14.0737 5.32031 15.7251 7.02918 15.6925 9.10274C15.6911 9.93101 15.4236 10.7369 14.9294 11.4015C14.7835 11.6055 14.7652 11.8743 14.8823 12.0962C15.0001 12.3213 15.2333 12.4621 15.4874 12.4614C18.049 12.5075 20.0903 14.6177 20.0515 17.1795C20.0585 18.4636 19.5453 19.6958 18.629 20.5954C18.4632 20.7583 18.3943 20.9957 18.4471 21.2221C18.4999 21.4484 18.6668 21.6308 18.8875 21.7035C21.4479 22.5988 23.0088 25.1896 22.6034 27.8716C22.1981 30.5535 19.9416 32.5675 17.231 32.6662C15.4133 32.6595 13.7239 31.7282 12.7479 30.1947ZM37.3332 38.6661H26.6667V36.6662H37.3332V38.6661ZM37.3332 35.3328H26.6667V34.6662H37.3332V35.3328ZM37.3332 33.3329H26.6667V31.3329H37.3332V33.3329Z" fill="#CBC56C"/>
<path d="M28.6668 16.6665H36.6667C38.3855 16.6664 39.8225 15.3593 39.985 13.6481C40.1475 11.9368 38.9821 10.3827 37.2939 10.0591C36.9888 7.73653 35.0093 6 32.6667 6C30.3242 6 28.3446 7.73653 28.0395 10.0591C26.3514 10.3827 25.186 11.9368 25.3484 13.6481C25.5108 15.3593 26.9478 16.6664 28.6668 16.6665ZM28.6668 11.3332C28.8436 11.3333 29.0132 11.263 29.1383 11.138C29.2633 11.013 29.3335 10.8434 29.3335 10.6665C29.3335 8.82558 30.8259 7.33318 32.6668 7.33318C34.5077 7.33318 36.0001 8.8255 36.0001 10.6665C36 10.8433 36.0703 11.0129 36.1953 11.138C36.3203 11.263 36.4899 11.3332 36.6668 11.3332C37.7713 11.3332 38.6668 12.2286 38.6668 13.3332C38.6668 14.4377 37.7714 15.3331 36.6668 15.3331H28.6669C27.5624 15.3331 26.667 14.4377 26.667 13.3332C26.667 12.2286 27.5622 11.3332 28.6668 11.3332Z" fill="#CBC56C"/>
</g>
<defs>
<clipPath id="clip0">
<rect width="40" height="40" fill="white"/>
</clipPath>
</defs>
</svg>
