<svg width="40" height="40" viewBox="0 0 40 40" fill="none" xmlns="http://www.w3.org/2000/svg">
<path d="M25.7042 4.94272C25.3022 2.12506 22.8496 0 19.9996 0C18.1667 0 16.426 0.884466 15.3437 2.36679C15.1226 2.66909 15.1887 3.09315 15.491 3.31422C15.7924 3.53449 16.2174 3.46914 16.4381 3.16644C17.2665 2.0329 18.5977 1.356 19.9994 1.356C22.1791 1.356 24.0543 2.98033 24.3617 5.134C24.4102 5.47225 24.7004 5.71636 25.0323 5.71636C25.0639 5.71636 25.0964 5.71397 25.1288 5.7096C25.4994 5.65657 25.7571 5.31315 25.7042 4.94272Z" fill="#CBC56C"/>
<path d="M35.4962 12.5322L33.4623 9.14235C33.34 8.93797 33.1193 8.81323 32.8809 8.81323H30.9319C30.5577 8.81323 30.254 9.11693 30.254 9.49113C30.254 9.86534 30.5577 10.169 30.9319 10.169H32.4972L33.7175 12.2029H6.28161L7.50195 10.169H8.21997C8.59418 10.169 8.89787 9.86534 8.89787 9.49113C8.89787 9.11693 8.59418 8.81323 8.21997 8.81323H7.11821C6.87987 8.81323 6.6592 8.93797 6.53684 9.14235L4.50295 12.5322C4.37722 12.742 4.37424 13.0028 4.49441 13.2153C4.61458 13.4278 4.83981 13.5593 5.08432 13.5593H34.9148C35.1593 13.5593 35.3844 13.4278 35.5048 13.2153C35.6251 13.0028 35.6219 12.7416 35.4962 12.5322Z" fill="#CBC56C"/>
<path d="M32.1169 6.28101C32.0219 6.12787 31.8704 6.01922 31.6952 5.97831L22.4531 3.8167C22.2781 3.77558 22.0938 3.80617 21.9408 3.90071C21.7883 3.99566 21.6794 4.1472 21.6385 4.32239L20.9416 7.30173C20.8562 7.6662 21.0826 8.03087 21.4473 8.11588C21.8117 8.20129 22.1768 7.97486 22.2618 7.61019L22.8044 5.29127L30.7261 7.14422L29.4813 12.4663C29.3959 12.8308 29.6224 13.1955 29.987 13.2805C30.0393 13.2926 30.0911 13.2983 30.1424 13.2983C30.4502 13.2983 30.7289 13.0874 30.8014 12.775L32.2007 6.79286C32.242 6.61787 32.2118 6.43355 32.1169 6.28101Z" fill="#CBC56C"/>
<path d="M20.3582 7.88361L19.7405 2.65884C19.7194 2.48028 19.6283 2.31721 19.4868 2.20599C19.3454 2.09476 19.1669 2.04391 18.9875 2.06496L7.64815 3.40527C7.27652 3.44936 7.01077 3.78623 7.05466 4.15825L8.08452 12.8724C8.12543 13.2174 8.41801 13.4711 8.75705 13.4711C8.78347 13.4711 8.81068 13.4693 8.8377 13.4663C9.20912 13.4222 9.47488 13.0853 9.43118 12.7133L8.48077 4.67188L18.4737 3.49087L19.0115 8.04231C19.0556 8.41413 19.3909 8.6783 19.7645 8.63619C20.1361 8.59249 20.4019 8.25543 20.3582 7.88361Z" fill="#CBC56C"/>
<path d="M25.7199 12.6237L24.3743 7.0277C24.3321 6.85311 24.2223 6.70196 24.0692 6.60801C23.916 6.51486 23.7323 6.48566 23.5565 6.52737L12.6349 9.15396C12.2708 9.24135 12.0468 9.60761 12.1341 9.97168L12.8067 12.7687C12.8941 13.1332 13.2603 13.3574 13.6242 13.2694C13.9883 13.182 14.2123 12.8158 14.1249 12.4517L13.6107 10.3137L23.2141 8.00453L24.4013 12.9411C24.4757 13.2519 24.7538 13.4605 25.0599 13.4605C25.1125 13.4605 25.1658 13.4543 25.2192 13.4414C25.5833 13.3538 25.8073 12.9878 25.7199 12.6237Z" fill="#CBC56C"/>
<path d="M35.5927 12.8468C35.574 12.4865 35.2764 12.2036 34.9153 12.2036H5.08482C4.72373 12.2036 4.42619 12.4863 4.40752 12.8468L3.05152 39.2874C3.04199 39.4729 3.10912 39.6544 3.23704 39.7891C3.36515 39.9236 3.54272 40 3.72863 40H36.2709C36.4567 40 36.6344 39.9238 36.7631 39.7891C36.8908 39.6544 36.958 39.4731 36.9486 39.2874L35.5927 12.8468ZM4.44208 38.644L5.72856 13.5594H34.2708L35.5573 38.644H4.44208Z" fill="#CBC56C"/>
<path d="M25.0846 14.915C23.963 14.915 23.0507 15.8273 23.0507 16.9489C23.0507 18.0706 23.963 18.9828 25.0846 18.9828C26.2063 18.9828 27.1185 18.0706 27.1185 16.9489C27.1185 15.8273 26.2063 14.915 25.0846 14.915ZM25.0846 17.627C24.7106 17.627 24.4067 17.3229 24.4067 16.9491C24.4067 16.5753 24.7108 16.2712 25.0846 16.2712C25.4584 16.2712 25.7625 16.5753 25.7625 16.9491C25.7625 17.3229 25.4584 17.627 25.0846 17.627Z" fill="#CBC56C"/>
<path d="M14.915 14.915C13.7933 14.915 12.8811 15.8273 12.8811 16.9489C12.8811 18.0706 13.7933 18.9828 14.915 18.9828C16.0366 18.9828 16.9489 18.0706 16.9489 16.9489C16.9489 15.8273 16.0366 14.915 14.915 14.915ZM14.915 17.627C14.5412 17.627 14.2371 17.3229 14.2371 16.9491C14.2371 16.5753 14.5412 16.2712 14.915 16.2712C15.2888 16.2712 15.5929 16.5753 15.5929 16.9491C15.5929 17.3229 15.2888 17.627 14.915 17.627Z" fill="#CBC56C"/>
<path d="M25.0843 16.949H25.0321C24.6578 16.949 24.3542 17.2527 24.3542 17.6269C24.3542 17.7194 24.3724 17.8078 24.4064 17.8883V21.3556C24.4064 23.7854 22.4295 25.7624 19.9996 25.7624C17.5696 25.7624 15.5927 23.7856 15.5927 21.3556V17.6271C15.5927 17.2529 15.289 16.9492 14.9148 16.9492C14.5406 16.9492 14.2369 17.2529 14.2369 17.6271V21.3558C14.2369 24.5334 16.822 27.1184 19.9996 27.1184C23.1771 27.1184 25.7622 24.5334 25.7622 21.3558V17.6271C25.7622 17.2529 25.4585 16.949 25.0843 16.949Z" fill="#CBC56C"/>
</svg>
