<svg width="40" height="40" viewBox="0 0 40 40" fill="none" xmlns="http://www.w3.org/2000/svg">
<path d="M38.7773 10.4922L29.5038 1.21875C28.7148 0.429688 27.6757 0 26.5585 0H13.4413C12.332 0 11.2851 0.429688 10.496 1.21875L1.2226 10.5C0.433533 11.2891 0.00384521 12.3281 0.00384521 13.4453V26.5547C0.00384521 27.6719 0.433533 28.7188 1.2226 29.5078L10.5038 38.7812C11.2929 39.5703 12.332 40 13.4492 40H26.5585C27.6757 40 28.7226 39.5703 29.5117 38.7812L38.7773 29.5C39.5663 28.7109 39.996 27.6719 39.996 26.5547V13.4375C39.996 12.3281 39.5663 11.2812 38.7773 10.4922ZM38.3476 26.5547C38.3476 27.2266 38.0898 27.8516 37.6132 28.3281L28.3398 37.6016C27.8632 38.0781 27.2382 38.3359 26.5663 38.3359H13.4492C12.7773 38.3359 12.1523 38.0781 11.6757 37.6016L2.40228 28.3281C1.92572 27.8516 1.66791 27.2266 1.66791 26.5547V13.4375C1.66791 12.7734 1.93353 12.1406 2.40228 11.6719L11.6835 2.39844C12.1523 1.92188 12.7773 1.66406 13.4492 1.66406H26.5585C27.2304 1.66406 27.8554 1.92969 28.332 2.39844L37.6132 11.6719C38.0898 12.1484 38.3476 12.7734 38.3476 13.4453V26.5547Z" fill="#CBC56C"/>
<path d="M8.69147 19.2422L8.44147 19.1641C7.51959 18.9062 6.66803 18.4687 6.66803 17.0859C6.66803 15.9375 7.41803 15 8.3399 15C9.2149 15 9.94928 15.8516 9.99615 16.9453C10.0196 17.4062 10.379 17.8125 10.8712 17.7344C11.3321 17.7109 11.6837 17.3203 11.6602 16.8594C11.5587 14.8906 10.0899 13.3438 8.33209 13.3438C6.48834 13.3438 4.99615 15.0234 4.99615 17.0937C4.99615 18.3828 5.51959 20.0703 7.98053 20.7734L8.23053 20.8437C9.1524 21.1094 10.004 21.5391 10.004 22.9219C10.004 24.0703 9.25397 25.0078 8.33209 25.0078C7.45709 25.0078 6.73053 24.1484 6.66803 23.0625C6.64459 22.6016 6.30084 22.2422 5.79303 22.2734C5.33209 22.2969 4.98053 22.6875 5.00397 23.1484C5.10553 25.1172 6.57428 26.664 8.33209 26.664C10.1758 26.664 11.668 24.9844 11.668 22.9219C11.668 21.0469 10.668 19.8125 8.69147 19.2422Z" fill="#CBC56C"/>
<path d="M19.1679 13.3281H12.5038C12.0429 13.3281 11.6679 13.7031 11.6679 14.1641C11.6679 14.625 12.0429 15 12.5038 15H19.1679C19.6288 15 20.0038 14.625 20.0038 14.1641C20.0038 13.7031 19.6288 13.3281 19.1679 13.3281Z" fill="#CBC56C"/>
<path d="M15.8398 13.3281C15.3788 13.3281 15.0038 13.7031 15.0038 14.1641V25.8281C15.0038 26.2891 15.3788 26.6641 15.8398 26.6641C16.3007 26.6641 16.6679 26.2969 16.6757 25.8281V14.1641C16.6757 13.7031 16.3007 13.3281 15.8398 13.3281Z" fill="#CBC56C"/>
<path d="M23.3398 13.3281C21.496 13.3281 20.0038 14.8281 20.0038 16.6641V23.3281C20.0038 25.1719 21.5038 26.6641 23.3398 26.6641C25.1757 26.6641 26.6679 25.1719 26.6757 23.3281V16.6641C26.6757 14.8203 25.1835 13.3281 23.3398 13.3281ZM25.0038 23.3281C25.0038 24.2422 24.2617 24.9922 23.3398 24.9922C22.4257 24.9922 21.6757 24.25 21.6757 23.3281V16.6641C21.6757 15.75 22.4179 15 23.3398 15C24.2538 15 25.0038 15.75 25.0038 16.6641V23.3281Z" fill="#CBC56C"/>
<path d="M32.504 13.3281H29.168C28.7071 13.3281 28.3321 13.7031 28.3321 14.1641V25.8281C28.3321 26.2891 28.7071 26.6641 29.168 26.6641C29.629 26.6641 30.004 26.2969 30.004 25.8281V21.6641H32.504C33.879 21.6641 35.004 20.5391 35.004 19.1641V15.8281C35.004 14.4531 33.879 13.3281 32.504 13.3281ZM33.3399 19.1641C33.3399 19.625 32.9649 20 32.504 20H30.004V14.9922H32.504C32.9649 14.9922 33.3399 15.3672 33.3399 15.8281V19.1641Z" fill="#CBC56C"/>
</svg>
