<svg width="40" height="40" viewBox="0 0 40 40" fill="none" xmlns="http://www.w3.org/2000/svg">
<path d="M32.2435 26.4201V22.256L30.4862 22.9397L30.4811 22.9281L30.4392 22.8521C29.7658 21.8037 28.6768 21.0742 27.4505 20.8519L23.222 20.0825V19.7487C24.8034 18.8304 25.9613 17.2639 26.3222 15.4119C27.4937 15.1696 28.3772 14.1302 28.3772 12.8878V6.52318C28.3772 4.72468 27.1992 3.15623 25.4903 2.64587L25.1681 2.32368C23.6692 0.824822 21.6768 0 19.5574 0C15.1826 0 11.623 3.55898 11.623 7.9344V12.8878C11.623 14.1302 12.5064 15.1696 13.6779 15.4119C14.0394 17.2639 15.1968 18.8311 16.7781 19.7487V20.0825L12.5502 20.8512C11.3252 21.0736 10.2369 21.8017 9.56283 22.8495L9.52417 22.9436L7.7566 22.256V26.4201C6.69078 26.4201 5.82343 27.2874 5.82343 28.3533V30.9308C5.82343 31.9967 6.69078 32.864 7.7566 32.864V35.2379L20.0001 40L32.2435 35.2379V32.864C33.3093 32.864 34.1767 31.9967 34.1767 30.9308V28.3533C34.1767 27.2874 33.3093 26.4201 32.2435 26.4201ZM24.4296 21.6123L27.2198 22.1194C28.0414 22.2689 28.7689 22.7432 29.2542 23.4185L23.0197 25.8427L24.4296 21.6123ZM18.1216 20.3396C18.7164 20.5213 19.3466 20.6206 20.0001 20.6206C20.6535 20.6206 21.2837 20.5213 21.8785 20.3396L20.0001 21.7482L18.1216 20.3396ZM19.0193 22.6233L17.7041 23.9379L16.8509 21.379L17.2614 21.3049L19.0193 22.6233ZM22.7387 21.3055L23.1492 21.3796L22.296 23.9385L20.9808 22.624L22.7387 21.3055ZM26.444 13.9975V11.7782C26.8274 12.0018 27.0884 12.4129 27.0884 12.8878C27.0884 13.3628 26.8274 13.7739 26.444 13.9975ZM13.5561 13.9975C13.1727 13.7739 12.9117 13.3628 12.9117 12.8878C12.9117 12.4129 13.1727 12.0018 13.5561 11.7782V13.9975ZM13.5561 9.66588V10.4018C13.3267 10.4617 13.1115 10.5519 12.9117 10.6686V7.9344C12.9117 4.27039 15.8927 1.28878 19.5574 1.28878C21.332 1.28878 23.0016 1.98022 24.2569 3.23549L24.8253 3.80449L24.9986 3.84702C26.2294 4.1544 27.0884 5.25502 27.0884 6.52318V10.6686C26.8886 10.5519 26.6734 10.4611 26.444 10.4018V9.66588H24.4006C22.6543 9.66588 20.9853 8.83204 19.9382 7.43564L19.4259 6.7513L18.1455 8.03235C17.0913 9.08593 15.6904 9.66588 14.2005 9.66588H13.5561ZM14.8449 14.1766V10.925C16.4359 10.7775 17.9122 10.0873 19.0567 8.94352L19.3073 8.69285C20.5993 10.1189 22.4603 10.9547 24.4006 10.9547H25.1552V14.1766C25.1552 17.019 22.8425 19.3318 20.0001 19.3318C17.1576 19.3318 14.8449 17.019 14.8449 14.1766ZM12.7803 22.1194L15.5705 21.6123L16.9804 25.8427L10.7446 23.4179C11.2299 22.7419 11.9587 22.2689 12.7803 22.1194ZM7.11221 30.9308V28.3533C7.11221 27.9976 7.40154 27.7089 7.7566 27.7089C8.82243 27.7089 9.68978 28.5762 9.68978 29.642C9.68978 30.7079 8.82243 31.5752 7.7566 31.5752C7.40154 31.5752 7.11221 31.2865 7.11221 30.9308ZM19.3557 38.3658L9.04539 34.3571V32.5908C10.1814 32.092 10.9786 30.9598 10.9786 29.642C10.9786 28.3243 10.1814 27.1921 9.04539 26.6933V24.1402L19.3557 28.1496V38.3658ZM17.4425 26.0231L20.0001 23.4649L22.5576 26.0225L20.0001 27.0174L17.4425 26.0231ZM30.9547 34.3564L20.6444 38.3652V28.1496L30.9547 24.1402V26.6933C29.8187 27.1921 29.0215 28.3243 29.0215 29.642C29.0215 30.9598 29.8187 32.092 30.9547 32.5908V34.3564ZM32.8879 30.9308C32.8879 31.2865 32.5986 31.5752 32.2435 31.5752C31.1777 31.5752 30.3103 30.7079 30.3103 29.642C30.3103 28.5762 31.1777 27.7089 32.2435 27.7089C32.5986 27.7089 32.8879 27.9976 32.8879 28.3533V30.9308Z" fill="#CBC56C"/>
</svg>
