<svg width="40" height="40" viewBox="0 0 40 40" fill="none" xmlns="http://www.w3.org/2000/svg">
<g clip-path="url(#clip0)">
<path d="M3.31237 16.0504C3.10516 16.0504 2.90557 15.9683 2.75909 15.8218L0.429069 13.4921C0.147392 13.2104 -0.004891 12.836 -8.19175e-06 12.4377C0.00517979 12.041 0.166007 11.6721 0.453178 11.3992C5.74798 6.36566 12.6898 3.59375 20 3.59375C27.3102 3.59375 34.252 6.36566 39.5468 11.3992C39.834 11.6721 39.9948 12.0407 40 12.4377C40.0049 12.8363 39.8523 13.2108 39.5706 13.4924L37.7151 15.3464C37.1512 15.9097 36.2549 15.921 35.6738 15.3726C31.4209 11.3541 25.8545 9.14093 20 9.14093C13.905 9.14093 8.17474 11.5137 3.86443 15.8218C3.71795 15.9683 3.51928 16.0504 3.31237 16.0504ZM1.60583 12.4594L3.32061 14.1736C7.85644 9.91455 13.7485 7.57843 20 7.57843C26.2237 7.57843 32.1435 9.92004 36.6788 14.1727L38.3939 12.4591C33.4003 7.74872 26.8726 5.15625 20 5.15625C13.1274 5.15625 6.59942 7.74902 1.60583 12.4594Z" fill="#CBC56C"/>
<path d="M31.0388 21.4158C30.6857 21.4158 30.332 21.2876 30.0518 21.0297C27.9388 19.0845 25.3326 17.8028 22.5149 17.3225C22.0898 17.2501 21.8035 16.8464 21.8762 16.421C21.9488 15.9959 22.351 15.709 22.7777 15.7822C25.8605 16.3077 28.7142 17.7009 31.0369 19.813L32.7526 18.0982C29.2672 14.8908 24.7424 13.126 19.9999 13.126C15.2572 13.126 10.7327 14.8908 7.24726 18.0982L8.96296 19.813C10.997 17.9636 13.475 16.648 16.1349 16.0059C16.5548 15.9046 16.9763 16.1628 17.0776 16.5821C17.1789 17.0014 16.9207 17.4235 16.5014 17.5248C14.067 18.1123 11.8008 19.3244 9.94807 21.0297C9.37037 21.5614 8.482 21.5415 7.92567 20.9855L6.06989 19.1303C5.78639 18.8471 5.6341 18.4705 5.64143 18.0698C5.64845 17.674 5.81904 17.2922 6.10926 17.0222C9.89466 13.502 14.8278 11.5635 19.9999 11.5635C25.1721 11.5635 30.1052 13.502 33.8906 17.0222C34.1809 17.2922 34.3511 17.674 34.3585 18.0698C34.3655 18.4705 34.2135 18.8471 33.93 19.1303L32.0742 20.9852C31.7877 21.2714 31.4135 21.4158 31.0388 21.4158Z" fill="#CBC56C"/>
<path d="M25.3962 27.0623C25.0602 27.0623 24.7224 26.9451 24.444 26.7089C23.2059 25.6585 21.6276 25.0799 20.0001 25.0799C18.3726 25.0799 16.7945 25.6585 15.5564 26.7089C14.969 27.207 14.1184 27.1749 13.5777 26.6345L11.714 24.7717C11.4289 24.4866 11.2727 24.0923 11.2852 23.6895C11.2974 23.2894 11.4759 22.9083 11.7753 22.644C14.0458 20.6378 16.9669 19.5327 20.0001 19.5327C23.0332 19.5327 25.9544 20.6378 28.2252 22.6443C28.5242 22.9083 28.7031 23.2894 28.7153 23.6895C28.7275 24.0923 28.5712 24.4866 28.2862 24.7717L26.4225 26.6345C26.1384 26.9186 25.7685 27.0623 25.3962 27.0623ZM20.0001 23.5174C21.9679 23.5174 23.8773 24.2068 25.387 25.4604L27.1064 23.7417C25.1337 22.0339 22.6148 21.0952 20.0001 21.0952C17.3856 21.0952 14.8664 22.0342 12.8938 23.7417L14.6134 25.4604C16.1228 24.2068 18.0323 23.5174 20.0001 23.5174Z" fill="#CBC56C"/>
<path d="M20.0043 36.4063C17.5488 36.4063 15.5511 34.4092 15.5511 31.9544C15.5511 30.7657 16.0141 29.6479 16.8549 28.8062C17.6962 27.9651 18.8144 27.5022 20.0043 27.5022C21.1929 27.5022 22.3111 27.9651 23.1528 28.8056C23.9944 29.6479 24.4574 30.7661 24.4574 31.9544C24.4574 34.4092 22.4597 36.4063 20.0043 36.4063ZM20.0043 29.0647C19.2316 29.0647 18.5056 29.3653 17.9599 29.9109C17.4142 30.4572 17.1136 31.1829 17.1136 31.9544C17.1136 33.5474 18.4103 34.8438 20.0043 34.8438C21.5982 34.8438 22.8949 33.5474 22.8949 31.9544C22.8949 31.1829 22.594 30.4569 22.048 29.9106C21.5021 29.3653 20.7761 29.0647 20.0043 29.0647Z" fill="#CBC56C"/>
<path d="M19.5229 17.1057C19.0914 17.1057 18.7411 16.756 18.7411 16.3245C18.7411 15.8929 19.0908 15.5432 19.522 15.5432H19.5229C19.9545 15.5432 20.3042 15.8929 20.3042 16.3245C20.3042 16.756 19.9545 17.1057 19.5229 17.1057Z" fill="#CBC56C"/>
</g>
<defs>
<clipPath id="clip0">
<rect width="40" height="40" fill="white"/>
</clipPath>
</defs>
</svg>
