<svg width="40" height="40" viewBox="0 0 40 40" fill="none" xmlns="http://www.w3.org/2000/svg">
<path d="M38.125 34.375H35V6.875C35.4968 6.87352 35.9729 6.6755 36.3242 6.32419C36.6755 5.97288 36.8735 5.49682 36.875 5V1.875C36.875 1.70924 36.8092 1.55027 36.6919 1.43306C36.5747 1.31585 36.4158 1.25 36.25 1.25H3.75C3.58424 1.25 3.42527 1.31585 3.30806 1.43306C3.19085 1.55027 3.125 1.70924 3.125 1.875V5C3.12648 5.49682 3.3245 5.97288 3.67581 6.32419C4.02712 6.6755 4.50318 6.87352 5 6.875V34.375H1.875C1.70924 34.375 1.55027 34.4408 1.43306 34.5581C1.31585 34.6753 1.25 34.8342 1.25 35V38.125C1.25 38.2908 1.31585 38.4497 1.43306 38.5669C1.55027 38.6842 1.70924 38.75 1.875 38.75H38.125C38.2908 38.75 38.4497 38.6842 38.5669 38.5669C38.6842 38.4497 38.75 38.2908 38.75 38.125V35C38.75 34.8342 38.6842 34.6753 38.5669 34.5581C38.4497 34.4408 38.2908 34.375 38.125 34.375ZM4.375 5V2.5H35.625V5C35.625 5.16576 35.5592 5.32473 35.4419 5.44194C35.3247 5.55915 35.1658 5.625 35 5.625H5C4.83424 5.625 4.67527 5.55915 4.55806 5.44194C4.44085 5.32473 4.375 5.16576 4.375 5ZM33.75 6.875V34.375H6.25V6.875H33.75ZM37.5 37.5H2.5V35.625H37.5V37.5Z" fill="#CBC56C"/>
<path d="M32.5 7.5H7.5C7.33424 7.5 7.17527 7.56585 7.05806 7.68306C6.94085 7.80027 6.875 7.95924 6.875 8.125V33.125C6.875 33.2908 6.94085 33.4497 7.05806 33.5669C7.17527 33.6842 7.33424 33.75 7.5 33.75H32.5C32.6658 33.75 32.8247 33.6842 32.9419 33.5669C33.0592 33.4497 33.125 33.2908 33.125 33.125V8.125C33.125 7.95924 33.0592 7.80027 32.9419 7.68306C32.8247 7.56585 32.6658 7.5 32.5 7.5ZM19.375 32.5H8.125V20.625H19.375V32.5ZM19.375 19.375H8.125V8.75H19.375V19.375ZM31.875 32.5H20.625V20.625H31.875V32.5ZM31.875 19.375H20.625V8.75H31.875V19.375Z" fill="#CBC56C"/>
<path d="M9.55595 12.6829L12.0556 10.1832L12.9394 11.0669L10.4397 13.5666L9.55595 12.6829Z" fill="#CBC56C"/>
<path d="M9.55588 15.8076L15.1801 10.1834L16.0638 11.0672L10.4396 16.6914L9.55588 15.8076Z" fill="#CBC56C"/>
</svg>
