<svg width="40" height="40" viewBox="0 0 40 40" xmlns="http://www.w3.org/2000/svg" xmlns:xlink="http://www.w3.org/1999/xlink"><defs><path id="a" d="M.26.186h19.569v19.3H.259z"></path><path id="c" d="M0 .096h19.57v19.301H0z"></path></defs><g fill="none" fill-rule="evenodd"><rect fill="#FFF" width="40" height="40" rx="20"></rect><g transform="translate(12 8.143)"><mask id="b" fill="#fff"><use xlink:href="#a"></use></mask><path d="M19.829 5.904c0-3.158-2.597-5.718-5.799-5.718H5.84C3.197.186.943 1.943.26 4.37h9.9c3.809 0 5.425 1.748 5.425 5.849v9.268c2.456-.676 4.244-2.906 4.244-5.503v-8.08z" fill="#1B3E91" fill-rule="nonzero" mask="url(#b)"></path></g><g transform="translate(8 12.417)"><mask id="d" fill="#fff"><use xlink:href="#c"></use></mask><path d="M0 13.68c0 3.158 2.595 5.717 5.798 5.717h8.19c2.643 0 4.897-1.756 5.581-4.184h-9.9c-3.809 0-5.425-1.748-5.425-5.849V.096C1.787.772 0 3.003 0 5.6v8.08z" fill="#E95A0C" fill-rule="nonzero" mask="url(#d)"></path></g><path d="M23.364 19.744h-.767v-1.838h.767c.936 0 1.19.445 1.19.916 0 .47-.34.922-1.19.922zm-.767-4.515h.613c1.038 0 1.09.628 1.09.821 0 .285-.153.815-1.039.815h-.664V15.23zm-1.344 3.206v1.602c-.324-.191-.697-.343-1.088-.51-.426-.186-.885-.421-.885-.951 0-.27.17-.67.987-.67h1.514l-.528.529zm-5.208 4.097h-.63v-2.159h.63c.783 0 1.14.469 1.14 1.04 0 .53-.322 1.119-1.14 1.119zm8.545-5.172v-.025c.459-.143 1.072-.52 1.072-1.512 0-1.115-.92-1.627-2.213-1.627h-2.196v2.67H19.96c-1.736 0-2.093 1.2-2.093 1.855 0 .93.545 1.342 1.55 1.837.61.301 1.342.486 1.342 1.175 0 .362-.34.799-1.071.799h-1.361c.204-.345.288-.723.288-1.05 0-.428-.153-2.141-2.57-2.141H14.07v6.605h1.345v-2.878l.544.537h3.678c1.717 0 2.534-.872 2.534-1.913 0-.369-.068-.665-.187-.906h1.379c2.127 0 2.62-1.042 2.62-1.857 0-.83-.544-1.443-1.394-1.569z" fill="#1B3E91" fill-rule="nonzero"></path></g></svg>