<svg width="60" height="60" viewBox="0 0 60 60" xmlns="http://www.w3.org/2000/svg">
  <g fill="none" fill-rule="evenodd">
    <rect fill="#FFF" width="60" height="60" rx="30"></rect>
    <g fill="#2F9C0A">
      <path d="M40.117 16.982l1.362 1.231-17.196 9.776-8.326-4.772.778-1.54 7.548 4.272 15.834-8.967zm-3.462-1.963l1.828.924-14.2 8.082-6.614-3.733 1.128-1.347 5.486 3.117 12.372-7.043zm6.03 4.464l1.012 1.347-19.414 11.046-9.377-5.311.428-1.694 8.949 5.08 18.402-10.468z"></path>
      <path d="M45.486 24.448c.57 1.591.856 3.258.856 5.003s-.285 3.439-.856 5.08l-.389 1.04a15.994 15.994 0 0 1-3.385 5.003 15.655 15.655 0 0 1-5.057 3.31 15.695 15.695 0 0 1-6.186 1.27c-2.153 0-4.215-.424-6.186-1.27-1.842-.77-3.515-1.873-5.02-3.31a15.169 15.169 0 0 1-3.384-5.003 15.655 15.655 0 0 1-1.245-6.12v-1.039l9.649 5.427L44.63 22.293l.856 2.155z"></path>
    </g>
  </g>
</svg>