<svg width="145" height="60" viewBox="0 0 145 60" fill="none" xmlns="http://www.w3.org/2000/svg">
<path d="M0 0V59.9105H12.5079V0H0ZM2.61873 57.2868V2.63055H9.88915V57.2868H2.61873Z" fill="#CBC56C"/>
<path d="M30.8596 0.151367V59.8139H43.3675V0.151367H30.8596ZM33.4784 57.1972V2.75437H40.7488V57.1558L33.4784 57.1972Z" fill="#CBC56C"/>
<path d="M52.1128 5.23347C52.1292 3.45091 52.7985 1.7361 53.9941 0.413086C55.1718 1.74619 55.817 3.46584 55.8069 5.24398C55.7967 7.02211 55.1318 8.73428 53.939 10.0539C52.7617 8.72375 52.1121 7.00917 52.1128 5.23347Z" fill="#CBC56C"/>
<path d="M28.7577 40.5806L10.7505 58.2989L12.4044 59.9516L28.7577 43.6656V40.5806Z" fill="#CBC56C"/>
<path d="M66.6674 13.4146L56.9919 15.8936L72.8766 0.117188H69.5618L45.2559 24.2466V27.5383L54.1251 18.7376L68.342 15.1017L66.6674 13.4146Z" fill="#CBC56C"/>
<path d="M59.0524 48.9889H57.3226V43.7622L53.8425 48.9889H52.1885V41.0215H53.9183V46.2482L57.426 41.0215H59.0524V48.9889Z" fill="#3E3E3D"/>
<path d="M66.688 43.0253C66.6949 43.4276 66.5739 43.8218 66.3423 44.151C66.1107 44.4801 65.7805 44.7274 65.3993 44.8571C65.8258 44.9529 66.2067 45.1916 66.4787 45.5336C66.7507 45.8755 66.8975 46.3002 66.8948 46.737C66.8948 48.1143 65.7232 49.1265 63.8625 49.1265C63.2105 49.1739 62.5559 49.079 61.9443 48.8483C61.3326 48.6176 60.7785 48.2567 60.3204 47.7906L61.2576 46.5786C61.5918 46.9073 61.9882 47.1661 62.4236 47.3399C62.8591 47.5137 63.3248 47.599 63.7936 47.5909C64.5379 47.5909 65.1719 47.2466 65.1719 46.6337C65.1719 46.0208 64.4828 45.6972 63.5938 45.6972H62.6359V44.2442H63.5318C64.4552 44.2442 64.9583 43.9274 64.9583 43.3214C64.9583 42.7154 64.4345 42.4331 63.6696 42.4331C63.2694 42.4162 62.8702 42.4855 62.4992 42.6364C62.1282 42.7873 61.7941 43.0162 61.5195 43.3077L60.596 42.1921C61.0046 41.7546 61.5033 41.4111 62.0578 41.1852C62.6123 40.9593 63.2092 40.8564 63.8074 40.8837C65.5165 40.8837 66.688 41.7858 66.688 43.0253Z" fill="#3E3E3D"/>
<path d="M68.4247 41.0215H70.2922L72.3597 44.3889L74.4271 41.0215H76.3222V48.9889H74.5787V43.7898L72.3321 47.1916H72.3597L70.1337 43.8242V48.9889H68.4247V41.0215Z" fill="#3E3E3D"/>
<path d="M81.0428 40.9663H82.6968L86.1425 48.9888H84.3094L83.5789 47.1984H80.147L79.4165 48.9888H77.6316L81.0428 40.9663ZM82.8897 45.6559L81.8285 43.0735L80.7741 45.6559H82.8897Z" fill="#3E3E3D"/>
<path d="M94.1779 48.9889H92.4481V43.7622L88.968 48.9889H87.314V41.0215H89.0438V46.2482L92.5515 41.0215H94.1779V48.9889Z" fill="#3E3E3D"/>
<path d="M102.847 41.0216V48.989H101.097V42.6055H98.7951V43.2046C98.7951 47.8941 98.0301 49.0923 96.2108 49.0923C95.9003 49.0887 95.591 49.0541 95.2874 48.989L95.4045 47.5429C95.4939 47.5511 95.5839 47.5511 95.6733 47.5429C96.6243 47.5429 97.1549 46.9438 97.1549 42.6537V41.001L102.847 41.0216Z" fill="#3E3E3D"/>
<path d="M104.749 41.0215H106.5V43.7278H108.195C110.042 43.7278 111.11 44.7538 111.11 46.317C111.11 47.8802 109.952 48.9889 108.085 48.9889H104.749V41.0215ZM106.5 45.2359V47.405H108.057C108.925 47.405 109.373 47.0332 109.373 46.2895C109.373 45.5458 108.925 45.2359 108.05 45.2359H106.5Z" fill="#3E3E3D"/>
<path d="M112.13 45.0015C112.147 44.1699 112.41 43.362 112.887 42.6802C113.364 41.9984 114.033 41.4734 114.808 41.1717C115.584 40.8701 116.432 40.8053 117.245 40.9857C118.057 41.1661 118.798 41.5835 119.373 42.1851L118.325 43.3833C118.063 43.0982 117.743 42.8717 117.386 42.7187C117.03 42.5656 116.646 42.4894 116.258 42.4949C115.633 42.5517 115.051 42.84 114.628 43.3032C114.205 43.7663 113.97 44.3709 113.97 44.9981C113.97 45.6253 114.205 46.2298 114.628 46.693C115.051 47.1562 115.633 47.4444 116.258 47.5013C116.647 47.4933 117.031 47.4069 117.386 47.2471C117.742 47.0874 118.061 46.8576 118.325 46.5716L119.442 47.7629C118.869 48.379 118.126 48.8111 117.307 49.0043C116.488 49.1974 115.629 49.143 114.841 48.8478C114.053 48.5526 113.371 48.03 112.881 47.3464C112.391 46.6627 112.115 45.849 112.089 45.0084L112.13 45.0015Z" fill="#3E3E3D"/>
<path d="M120.889 41.0215H122.667V44.5059L125.906 41.0215H128.021L124.734 44.4026L128.125 48.9889H126.023L123.549 45.594L122.667 46.5512V48.9889H120.916L120.889 41.0215Z" fill="#3E3E3D"/>
<path d="M136.071 48.9889H134.341V43.7622L130.854 48.9889H129.207V41.0215H130.936V46.2482L134.444 41.0215H136.071V48.9889Z" fill="#3E3E3D"/>
<path d="M144.857 48.9889H143.127V43.7622L139.64 48.9889H137.986V41.0215H139.723V46.2482L143.231 41.0215H144.857V48.9889Z" fill="#3E3E3D"/>
<path d="M54.1595 56.8183H56.2269C56.2361 56.5854 56.2058 56.3526 56.1373 56.1297C56.0717 55.921 55.9664 55.727 55.8272 55.5581C55.681 55.3886 55.5 55.2524 55.2966 55.1587C55.0499 55.0569 54.7847 55.0076 54.5178 55.0141C54.3417 55.0117 54.1659 55.0301 53.9941 55.0692C53.834 55.1085 53.6823 55.1761 53.5461 55.2689C53.4148 55.3564 53.3043 55.4716 53.2223 55.6064C53.1302 55.755 53.0714 55.9218 53.05 56.0953H52.3746C52.3749 55.962 52.3959 55.8296 52.4366 55.7028C52.4763 55.5637 52.5367 55.4313 52.6158 55.3102C52.7014 55.1786 52.8032 55.0582 52.919 54.9522C53.0489 54.8364 53.1923 54.737 53.3463 54.656C53.5218 54.5702 53.7068 54.5055 53.8976 54.4632C54.1233 54.4097 54.3548 54.3842 54.5867 54.3875C54.7978 54.3858 55.0082 54.4089 55.2139 54.4563C55.4157 54.4938 55.6108 54.5611 55.7927 54.656C55.9782 54.7482 56.148 54.8691 56.2958 55.0141C56.454 55.1638 56.5866 55.3383 56.6886 55.5306C56.8028 55.7483 56.8885 55.9797 56.9436 56.2192C57.0856 56.8402 57.0856 57.4851 56.9436 58.1061C56.8719 58.3638 56.7677 58.6114 56.6335 58.8429C56.5103 59.038 56.3594 59.2143 56.1856 59.3662C56.0215 59.5011 55.8408 59.6145 55.648 59.7037C55.4698 59.7871 55.2825 59.8495 55.0898 59.8896C54.9124 59.9215 54.7325 59.9377 54.5523 59.9378C54.2367 59.9433 53.923 59.8872 53.6288 59.7725C53.3717 59.6673 53.1377 59.5129 52.9397 59.318C52.7536 59.1331 52.606 58.9131 52.5056 58.6707C52.4009 58.4295 52.347 58.1693 52.347 57.9064H53.0362C52.9949 58.1144 53.0044 58.3294 53.0638 58.533C53.1386 58.7035 53.249 58.8561 53.3876 58.9806C53.5299 59.1136 53.6959 59.2187 53.8769 59.2905C54.0771 59.3666 54.2899 59.404 54.5041 59.4007C54.6279 59.4106 54.7523 59.4106 54.8762 59.4007C55.0101 59.3713 55.1398 59.325 55.2621 59.263C55.3946 59.2031 55.5176 59.1242 55.6274 59.0288C55.7443 58.9213 55.8463 58.7985 55.9306 58.6639C56.0195 58.5052 56.089 58.3364 56.1373 58.1612C56.1915 57.9357 56.217 57.7043 56.2131 57.4725H54.1457L54.1595 56.8183Z" fill="#3E3E3D"/>
<path d="M58.7491 54.5601H59.4383V57.1562L62.0432 54.5738H63.0563L60.8372 56.7155L63.1183 59.8763H62.2017L60.3204 57.2044L59.459 58.0307V59.8763H58.7698L58.7491 54.5601Z" fill="#3E3E3D"/>
<path d="M69.6031 57.211C69.6011 57.4421 69.578 57.6726 69.5342 57.8996C69.4907 58.1368 69.419 58.368 69.3206 58.5882C69.2233 58.7903 69.1056 58.9818 68.9691 59.1598C68.6646 59.527 68.2524 59.7895 67.7907 59.9104C67.5267 59.9874 67.2526 60.0246 66.9775 60.0206C66.7001 60.0263 66.4235 59.9892 66.1574 59.9104C65.912 59.8497 65.6789 59.7472 65.4683 59.6074C65.2771 59.4813 65.1072 59.3256 64.9652 59.146C64.8242 58.9699 64.7039 58.7781 64.6069 58.5744C64.5073 58.3552 64.4378 58.1236 64.4001 57.8858C64.3529 57.6593 64.3298 57.4285 64.3312 57.1972C64.3253 56.8138 64.3835 56.4321 64.5035 56.0678C64.6121 55.7426 64.7856 55.4427 65.0135 55.1864C65.2405 54.9369 65.5208 54.7416 65.8335 54.6148C66.1809 54.4721 66.5538 54.4018 66.9293 54.4082C67.3071 54.4009 67.6824 54.4712 68.0319 54.6148C68.3426 54.7416 68.6206 54.937 68.8451 55.1864C69.073 55.4427 69.2465 55.7426 69.355 56.0678C69.5024 56.4319 69.5863 56.8186 69.6031 57.211ZM68.914 57.211C68.9168 56.9149 68.875 56.62 68.7899 56.3364C68.7145 56.0838 68.5878 55.8494 68.4178 55.6478C68.2583 55.4539 68.0553 55.3006 67.8251 55.2002C67.5739 55.0883 67.3007 55.0342 67.0258 55.0418C66.7508 55.0349 66.4778 55.089 66.2263 55.2002C65.9962 55.3006 65.7931 55.4539 65.6337 55.6478C65.4669 55.8515 65.3406 56.0853 65.2616 56.3364C65.1007 56.9107 65.1007 57.5181 65.2616 58.0924C65.3267 58.3449 65.4467 58.58 65.613 58.781C65.7606 58.9654 65.9463 59.1157 66.1574 59.2217C66.4219 59.3292 66.7059 59.3808 66.9913 59.3732C67.2721 59.3789 67.5511 59.3274 67.8114 59.2217C68.0401 59.119 68.2427 58.966 68.404 58.7741C68.5649 58.5697 68.6843 58.3357 68.7555 58.0855C68.8322 57.8004 68.8693 57.5061 68.8657 57.211H68.914Z" fill="#3E3E3D"/>
<path d="M71.3535 54.5601H72.0427V57.1562L74.6476 54.5738H75.64L73.4209 56.7155L75.702 59.8763H74.7923L72.911 57.2044L72.0427 58.0307V59.8763H71.3535V54.5601Z" fill="#3E3E3D"/>
<path d="M77.2457 54.5601H79.1546H79.7059C79.8545 54.5713 80.002 54.5943 80.1469 54.6289C80.2766 54.6674 80.4015 54.7205 80.5191 54.7873C80.6324 54.8593 80.7345 54.9475 80.8223 55.049C80.909 55.1585 80.9766 55.2819 81.0222 55.414C81.0769 55.5638 81.1026 55.7227 81.098 55.8822C81.0955 55.9818 81.084 56.0809 81.0635 56.1783C81.0366 56.2858 80.9973 56.3898 80.9463 56.4882C80.8868 56.5924 80.8126 56.6875 80.7258 56.7705C80.6284 56.8649 80.5138 56.9397 80.3881 56.9909C80.5045 57.0269 80.6157 57.0779 80.7189 57.1424C80.8369 57.2049 80.9421 57.289 81.029 57.3903C81.1282 57.4997 81.2075 57.6255 81.2634 57.7622C81.3283 57.9288 81.3588 58.1068 81.3529 58.2855C81.3521 58.406 81.3382 58.5261 81.3116 58.6436C81.2848 58.7685 81.2407 58.889 81.1807 59.0017C81.1152 59.122 81.0341 59.2331 80.9395 59.3322C80.8375 59.4401 80.7189 59.5308 80.588 59.6008C80.4385 59.6821 80.2785 59.7423 80.1125 59.7798C79.9096 59.8292 79.7011 59.8524 79.4923 59.8487H77.2457V54.5601ZM79.3131 56.8188C79.5062 56.8254 79.6991 56.8022 79.8851 56.7499C80.0087 56.7192 80.1226 56.6576 80.2159 56.5708C80.2941 56.499 80.3493 56.4055 80.3744 56.3023C80.4025 56.1944 80.4164 56.0832 80.4157 55.9717C80.417 55.8569 80.3984 55.7428 80.3606 55.6343C80.3182 55.5386 80.2546 55.4538 80.1745 55.3864C80.0696 55.3158 79.9529 55.2645 79.8299 55.2349C79.6605 55.1958 79.487 55.1773 79.3131 55.1798H77.9831V56.8188H79.3131ZM79.3889 59.2221C79.5864 59.2272 79.7837 59.204 79.9747 59.1532C80.1157 59.1211 80.2476 59.0576 80.3606 58.9673C80.453 58.8885 80.5261 58.7895 80.5742 58.678C80.6165 58.5563 80.6375 58.4282 80.6362 58.2993C80.638 58.1704 80.617 58.0422 80.5742 57.9206C80.5299 57.8069 80.4562 57.7071 80.3606 57.6313C80.2464 57.5415 80.1151 57.4759 79.9747 57.4385C79.7828 57.3933 79.586 57.3725 79.3889 57.3765H77.9555V59.2221H79.3889Z" fill="#3E3E3D"/>
<path d="M82.6968 59.8621L84.7022 54.4771H85.5705L87.5001 59.8621H86.7145L86.1425 58.237H84.0751L83.4824 59.8621H82.6968ZM85.9426 57.6792L85.1294 55.3172L84.2336 57.6792H85.9426Z" fill="#3E3E3D"/>
<path d="M89.1057 54.5598H91.3523C91.6094 54.5535 91.8657 54.5908 92.1104 54.6699C92.309 54.734 92.4904 54.8423 92.641 54.9867C92.7845 55.1218 92.8932 55.2896 92.958 55.4756C93.0957 55.8868 93.0957 56.3315 92.958 56.7427C92.8947 56.9295 92.7858 57.0976 92.641 57.2316C92.4904 57.376 92.309 57.4843 92.1104 57.5484C91.8657 57.6276 91.6094 57.6648 91.3523 57.6586H89.8224V59.8622H89.1333L89.1057 54.5598ZM91.2765 57.0388C91.5697 57.0672 91.8627 56.9835 92.0966 56.8047C92.1828 56.7129 92.2492 56.6044 92.2919 56.486C92.3346 56.3676 92.3525 56.2417 92.3447 56.116C92.3534 55.9903 92.3358 55.8642 92.2931 55.7457C92.2504 55.6271 92.1835 55.5188 92.0966 55.4274C91.8654 55.2429 91.5709 55.1564 91.2765 55.1864H89.8224V57.0457L91.2765 57.0388Z" fill="#3E3E3D"/>
<path d="M94.5499 54.5601H98.8915V55.1798H97.079V59.8625H96.3899V55.1798H94.5499V54.5601Z" fill="#3E3E3D"/>
<path d="M100.049 59.8621L102.048 54.4771H102.916L104.853 59.8621H104.06L103.502 58.237H101.4L100.807 59.8621H100.049ZM103.295 57.6792L102.482 55.3172L101.579 57.6792H103.295Z" fill="#3E3E3D"/>
<path d="M109.732 55.1798H107.823C107.823 55.593 107.823 55.9924 107.823 56.3918C107.823 56.7912 107.823 57.1631 107.761 57.5212C107.736 57.8497 107.69 58.1763 107.623 58.499C107.567 58.7657 107.479 59.0247 107.361 59.2703C107.27 59.4711 107.13 59.6461 106.954 59.7799C106.786 59.9074 106.58 59.973 106.369 59.9658C106.312 59.9738 106.254 59.9738 106.196 59.9658L106.038 59.9245V59.2221H106.141C106.198 59.2305 106.256 59.2305 106.314 59.2221C106.421 59.2216 106.525 59.1797 106.603 59.105C106.695 59.0085 106.766 58.8935 106.81 58.7676C106.875 58.6005 106.923 58.4276 106.954 58.2511C106.954 58.0514 107.023 57.8379 107.044 57.6038C107.065 57.3697 107.085 57.1218 107.099 56.867V56.0751C107.099 55.8065 107.099 55.5379 107.099 55.2694C107.099 55.0008 107.099 54.7391 107.099 54.4912H110.421V59.7936H109.732V55.1798Z" fill="#3E3E3D"/>
<path d="M140.722 37.1856C141.309 36.2927 142.204 35.6477 143.238 35.3745C143.395 36.4279 143.158 37.5023 142.572 38.3918C141.985 39.2813 141.091 39.9233 140.061 40.1949C139.912 39.145 140.147 38.0767 140.722 37.1856Z" fill="#3E3E3D"/>
</svg>
